<mxfile host="Electron" modified="2024-01-25T16:08:51.030Z" agent="Mozilla/5.0 (Windows NT 10.0; Win64; x64) AppleWebKit/537.36 (KHTML, like Gecko) draw.io/21.7.5 Chrome/114.0.5735.289 Electron/25.8.1 Safari/537.36" etag="DeuigSvIhHZY97pUchBy" version="21.7.5" type="device">
  <diagram name="Soil Diffusion" id="1cnYu-UxykjTLAbJ7Ij1">
    <mxGraphModel dx="1302" dy="764" grid="1" gridSize="10" guides="1" tooltips="1" connect="1" arrows="1" fold="1" page="1" pageScale="1" pageWidth="1100" pageHeight="850" math="0" shadow="0">
      <root>
        <mxCell id="0" />
        <mxCell id="1" parent="0" />
        <mxCell id="RAA0hN1dL-Yfy-KfUUCs-1" value="" style="whiteSpace=wrap;html=1;aspect=fixed;fillColor=#a0522d;fontColor=#ffffff;strokeColor=#571900;strokeWidth=4;" vertex="1" parent="1">
          <mxGeometry x="440" y="120" width="400" height="400" as="geometry" />
        </mxCell>
        <mxCell id="RAA0hN1dL-Yfy-KfUUCs-2" value="Legend" style="swimlane;whiteSpace=wrap;html=1;" vertex="1" parent="1">
          <mxGeometry x="50" y="60" width="200" height="220" as="geometry" />
        </mxCell>
        <mxCell id="RAA0hN1dL-Yfy-KfUUCs-3" value="" style="whiteSpace=wrap;html=1;aspect=fixed;" vertex="1" parent="RAA0hN1dL-Yfy-KfUUCs-2">
          <mxGeometry y="20" width="200" height="200" as="geometry" />
        </mxCell>
        <mxCell id="RAA0hN1dL-Yfy-KfUUCs-5" value="CWT Sensor" style="rounded=0;whiteSpace=wrap;html=1;" vertex="1" parent="RAA0hN1dL-Yfy-KfUUCs-2">
          <mxGeometry x="56" y="60" width="130" height="30" as="geometry" />
        </mxCell>
        <mxCell id="RAA0hN1dL-Yfy-KfUUCs-4" value="" style="rhombus;whiteSpace=wrap;html=1;fillColor=#fad9d5;strokeColor=#ae4132;" vertex="1" parent="RAA0hN1dL-Yfy-KfUUCs-2">
          <mxGeometry x="20" y="60" width="30" height="30" as="geometry" />
        </mxCell>
        <mxCell id="RAA0hN1dL-Yfy-KfUUCs-21" value="" style="shape=sumEllipse;perimeter=ellipsePerimeter;whiteSpace=wrap;html=1;backgroundOutline=1;fillColor=#b1ddf0;strokeColor=#10739e;" vertex="1" parent="RAA0hN1dL-Yfy-KfUUCs-2">
          <mxGeometry x="20" y="110" width="30" height="30" as="geometry" />
        </mxCell>
        <mxCell id="RAA0hN1dL-Yfy-KfUUCs-22" value="Liquid source" style="rounded=0;whiteSpace=wrap;html=1;" vertex="1" parent="RAA0hN1dL-Yfy-KfUUCs-2">
          <mxGeometry x="57" y="110" width="130" height="30" as="geometry" />
        </mxCell>
        <mxCell id="RAA0hN1dL-Yfy-KfUUCs-8" value="" style="rhombus;whiteSpace=wrap;html=1;fillColor=#fad9d5;strokeColor=#ae4132;" vertex="1" parent="1">
          <mxGeometry x="780" y="140" width="40" height="40" as="geometry" />
        </mxCell>
        <mxCell id="RAA0hN1dL-Yfy-KfUUCs-9" value="" style="rhombus;whiteSpace=wrap;html=1;fillColor=#fad9d5;strokeColor=#ae4132;" vertex="1" parent="1">
          <mxGeometry x="460" y="460" width="40" height="40" as="geometry" />
        </mxCell>
        <mxCell id="RAA0hN1dL-Yfy-KfUUCs-10" value="" style="rhombus;whiteSpace=wrap;html=1;fillColor=#fad9d5;strokeColor=#ae4132;" vertex="1" parent="1">
          <mxGeometry x="780" y="460" width="40" height="40" as="geometry" />
        </mxCell>
        <mxCell id="RAA0hN1dL-Yfy-KfUUCs-11" value="" style="rhombus;whiteSpace=wrap;html=1;fillColor=#fad9d5;strokeColor=#ae4132;" vertex="1" parent="1">
          <mxGeometry x="690" y="230" width="40" height="40" as="geometry" />
        </mxCell>
        <mxCell id="RAA0hN1dL-Yfy-KfUUCs-12" value="" style="rhombus;whiteSpace=wrap;html=1;fillColor=#fad9d5;strokeColor=#ae4132;" vertex="1" parent="1">
          <mxGeometry x="570" y="340" width="40" height="40" as="geometry" />
        </mxCell>
        <mxCell id="RAA0hN1dL-Yfy-KfUUCs-13" value="" style="endArrow=baseDash;html=1;rounded=0;startArrow=baseDash;startFill=0;endFill=0;" edge="1" parent="1">
          <mxGeometry width="50" height="50" relative="1" as="geometry">
            <mxPoint x="440" y="40" as="sourcePoint" />
            <mxPoint x="840" y="40" as="targetPoint" />
          </mxGeometry>
        </mxCell>
        <mxCell id="RAA0hN1dL-Yfy-KfUUCs-16" value="&lt;font style=&quot;font-size: 20px;&quot;&gt;60 cm&lt;/font&gt;" style="text;html=1;strokeColor=none;fillColor=none;align=center;verticalAlign=middle;whiteSpace=wrap;rounded=0;" vertex="1" parent="1">
          <mxGeometry x="610" y="10" width="60" height="30" as="geometry" />
        </mxCell>
        <mxCell id="RAA0hN1dL-Yfy-KfUUCs-18" value="" style="endArrow=baseDash;html=1;rounded=0;startArrow=baseDash;startFill=0;endFill=0;" edge="1" parent="1">
          <mxGeometry width="50" height="50" relative="1" as="geometry">
            <mxPoint x="690" y="220" as="sourcePoint" />
            <mxPoint x="770" y="140" as="targetPoint" />
          </mxGeometry>
        </mxCell>
        <mxCell id="RAA0hN1dL-Yfy-KfUUCs-20" value="&lt;font style=&quot;font-size: 20px; background-color: rgb(255, 255, 255);&quot;&gt;10 cm&lt;/font&gt;" style="text;html=1;strokeColor=none;fillColor=none;align=center;verticalAlign=middle;whiteSpace=wrap;rounded=0;rotation=-45;" vertex="1" parent="1">
          <mxGeometry x="690" y="150" width="60" height="30" as="geometry" />
        </mxCell>
        <mxCell id="RAA0hN1dL-Yfy-KfUUCs-23" value="" style="shape=sumEllipse;perimeter=ellipsePerimeter;whiteSpace=wrap;html=1;backgroundOutline=1;fillColor=#b1ddf0;strokeColor=#10739e;" vertex="1" parent="1">
          <mxGeometry x="790" y="150" width="20" height="20" as="geometry" />
        </mxCell>
        <mxCell id="RAA0hN1dL-Yfy-KfUUCs-25" style="rounded=0;orthogonalLoop=1;jettySize=auto;html=1;entryX=1;entryY=0.5;entryDx=0;entryDy=0;strokeWidth=2;" edge="1" parent="1" source="RAA0hN1dL-Yfy-KfUUCs-24" target="RAA0hN1dL-Yfy-KfUUCs-23">
          <mxGeometry relative="1" as="geometry" />
        </mxCell>
        <mxCell id="RAA0hN1dL-Yfy-KfUUCs-24" value="Pour liquid directly over cornermost sensor" style="rounded=1;whiteSpace=wrap;html=1;strokeWidth=2;" vertex="1" parent="1">
          <mxGeometry x="920" y="80" width="120" height="60" as="geometry" />
        </mxCell>
        <mxCell id="RAA0hN1dL-Yfy-KfUUCs-27" value="" style="endArrow=baseDash;html=1;rounded=0;startArrow=baseDash;startFill=0;endFill=0;" edge="1" parent="1">
          <mxGeometry width="50" height="50" relative="1" as="geometry">
            <mxPoint x="880" y="159.57999999999998" as="sourcePoint" />
            <mxPoint x="880" y="480" as="targetPoint" />
          </mxGeometry>
        </mxCell>
        <mxCell id="RAA0hN1dL-Yfy-KfUUCs-28" value="&lt;font style=&quot;font-size: 20px;&quot;&gt;40cm&lt;/font&gt;" style="text;html=1;strokeColor=none;fillColor=none;align=center;verticalAlign=middle;whiteSpace=wrap;rounded=0;rotation=90;" vertex="1" parent="1">
          <mxGeometry x="870" y="305" width="60" height="30" as="geometry" />
        </mxCell>
      </root>
    </mxGraphModel>
  </diagram>
</mxfile>
